<svg xmlns="http://www.w3.org/2000/svg" xmlns:xlink="http://www.w3.org/1999/xlink" data-noselect="" viewBox="0 0 800 600" width="800" height="600" preserveAspectRatio="none" version="1.1" class="svg-canvas">
<svg data-v-218d7798="" data-noselect="" viewBox="0 0 800 600" width="800" height="600" preserveAspectRatio="none" version="1.1" xmlns="http://www.w3.org/2000/svg" xmlns:xlink="http://www.w3.org/1999/xlink" class="svg-canvas"><defs data-v-218d7798=""></defs> <g data-v-218d7798="" id="background" data-noselect=""><rect x="0" y="0" fill="#ffffff" width="800" height="600" data-noselect=""></rect> <!----></g></svg>
<svg data-v-218d7798="" id="shape_Qz5EKUbdBy" data-noselect="" viewBox="0 0 800 600" width="800" height="600" preserveAspectRatio="none" version="1.1" xmlns="http://www.w3.org/2000/svg" xmlns:xlink="http://www.w3.org/1999/xlink" class="svg-canvas"><defs data-v-218d7798=""></defs> <g data-v-218d7798="" transform="translate(290.42349228041,120) rotate(0,106.26034987733,115.87251639896) scale(1,1)" filter="" style="opacity: 1;"><g data-v-218d7798=""><rect fill="rgba(0,0,0,0)" width="232.52069975467" height="251.74503279792" x="-10" y="-10"></rect><svg version="1.1" id="图层_1" xmlns="http://www.w3.org/2000/svg" xmlns:xlink="http://www.w3.org/1999/xlink" x="0px" y="0px" width="212.52069975467" height="231.74503279792" viewBox="0 0 165.49 180.46" style="enable-background:new 0 0 165.49 180.46;" xml:space="preserve" class="style-removed" preserveAspectRatio="none" data-parent="shape_Qz5EKUbdBy">

<g>
	<polygon points="153.83,38.71 153.83,115.53 84.73,166.02 84.73,180.46 165.49,121.45 165.49,28.28 	" fill="#0082f5" stroke-width="0"></polygon>
	<g>
		<polygon points="11.66,38.71 0,28.28 0,121.45 79.68,179.67 79.68,165.24 11.66,115.53 		" fill="#535056" stroke-width="0"></polygon>
		<polygon points="28.8,14.71 1.49,14.71 15.35,28.19 79.68,28.19 79.68,14.71 79.68,0 		" fill="#535056" stroke-width="0"></polygon>
	</g>
	<polygon points="135.61,14.71 84.73,0 84.73,14.71 84.73,28.19 150.14,28.19 164,14.71 	" fill="#0082f5" stroke-width="0"></polygon>
</g>
</svg></g></g></svg>
<svg data-v-218d7798="" id="shape_RhsPas5MtC" data-noselect="" viewBox="0 0 800 600" width="800" height="600" preserveAspectRatio="none" version="1.1" xmlns="http://www.w3.org/2000/svg" xmlns:xlink="http://www.w3.org/1999/xlink" class="svg-canvas"><defs data-v-218d7798=""></defs> <g data-v-218d7798="" transform="translate(-79.70670502048,30.219453993339982) rotate(0,480.02557880458,385.52557880458) scale(1,1)" filter="" style="opacity: 1;"><g data-v-218d7798=""><svg xmlns="http://www.w3.org/2000/svg" version="1.1" xmlns:xlink="http://www.w3.org/1999/xlink" width="960.0511576091599" height="771.05115760916" viewBox="0 0 960.0511576091599 771.05115760916" data-parent="shape_RhsPas5MtC"><g data-role="text" data-width="14.469300000000002" data-height="128" transform="translate(472.79092880458, 321.52557880458)"><path d="M0,0Z" transform="translate(0 96) " fill="rgb(83, 80, 86)" stroke="rgb(83, 80, 86)" stroke-width="0.179" data-glyph-w="14.469300000000002" data-glyph-h="128.616" data-glyph-ascender="96.462" data-glyph-descender="-32.154"></path></g></svg></g></g></svg>
<svg data-v-218d7798="" id="shape_gCSbazkgSe" data-noselect="" viewBox="0 0 800 600" width="800" height="600" preserveAspectRatio="none" version="1.1" xmlns="http://www.w3.org/2000/svg" xmlns:xlink="http://www.w3.org/1999/xlink" class="svg-canvas"><defs data-v-218d7798=""></defs> <g data-v-218d7798="" transform="translate(-132.35218183165995,-293.2763018743999) rotate(0,528.37634869707,550.97634869707) scale(1,1)" filter="" style="opacity: 1;"><g data-v-218d7798=""><svg xmlns="http://www.w3.org/2000/svg" version="1.1" xmlns:xlink="http://www.w3.org/1999/xlink" width="1056.75269739414" height="1152.15269739414" viewBox="0 0 1056.75269739414 1152.15269739414" data-parent="shape_gCSbazkgSe">
  <g data-role="text" data-width="179.5875804143514" data-height="175">
    <path d="M445.79 477.47Q445.79 467.48 445.79 457.49 445.79 457.49 445.79 457.49 485.64 457.57 525.49 457.65 525.49 473.44 525.49 489.24 510.54 487.03 495.59 484.82 495.59 539.24 495.59 593.66 485.63 586.39 475.68 579.12 475.68 530.5 475.68 481.88 460.73 479.67 445.79 477.47 445.79 477.47 445.79 477.47" fill="rgb(0, 130, 245)" stroke="rgb(0, 130, 245)" stroke-width="0.244" data-glyph-w="86.68676139858195" data-glyph-h="152.266318359375" data-glyph-ascender="122.44095703125" data-glyph-descender="-29.825361328125"></path>
    <path d="M552.66 571.72Q552.66 514.47 552.66 457.21 552.66 457.21 552.66 457.21 542.71 457.21 532.75 457.21 532.75 528.15 532.75 599.09 537.75 603.48 542.74 607.51 572.57 585.82 602.39 564.15 607.39 555.37 612.38 546.97 612.38 502.09 612.38 457.21 602.42 457.21 592.47 457.21 592.47 502.89 592.47 548.56 572.57 560.13 552.66 571.72 552.66 571.72 552.66 571.72" fill="rgb(83, 80, 86)" stroke="rgb(83, 80, 86)" stroke-width="0.244" data-glyph-w="86.90081901576944" data-glyph-h="152.266318359375" data-glyph-ascender="122.44095703125" data-glyph-descender="-29.825361328125"></path>
  </g>
</svg></g></g></svg>


</svg>